<?xml version="1.0" encoding="UTF-8"?>
<svg width="35px" height="40px" viewBox="0 0 35 40" version="1.1" xmlns="http://www.w3.org/2000/svg" xmlns:xlink="http://www.w3.org/1999/xlink">
    <!-- Generator: Sketch 58 (84663) - https://sketch.com -->
    <title>ICON-CMYK_CustSvc_01</title>
    <desc>Created with Sketch.</desc>
    <g id="Page-1" stroke="none" stroke-width="1" fill="none" fill-rule="evenodd">
        <g id="2019_Q4_Borrower_Email-Conf_Esign_Email" transform="translate(-303.000000, -614.000000)" fill-rule="nonzero">
            <g id="Block-3" transform="translate(0.000000, 591.000000)">
                <g id="ICON-CMYK_CustSvc_01" transform="translate(303.000000, 23.000000)">
                    <path d="M33.898,31.12 C33.898,32.191 33.029,33.061 31.957,33.061 C30.886,33.061 30.017,32.192 30.017,31.12 C30.017,30.051 30.885,29.183 31.957,29.183 C33.029,29.183 33.898,30.05 33.898,31.12 Z" id="Path" fill="#F26A58"></path>
                    <path d="M7.506,37.684 C10.433,39.37 16.954,39.361 19.842,37.656 C20.329,37.368 20.615,36.832 20.615,36.267 L20.615,32.103 C20.615,31.481 21.426,31.418 21.748,31.418 C21.828,31.418 21.879,31.422 21.879,31.422 C21.879,31.422 22.049,31.431 22.323,31.431 C23.52,31.431 26.742,31.287 27.031,29.77 C27.387,27.902 26.983,24.178 26.983,24.178 C26.983,24.178 28.489,23.597 29.754,22.863 C31.016,22.133 30.24,21.037 30.24,21.037 C27.125,16.176 27.064,14.945 27.064,14.945 C25.802,4.206 17.042,3.453 14.6,3.453 C14.2,3.453 13.885,3.467 13.724,3.467 C11.933,3.467 1,3.929 0.945,15.124 C0.945,15.15 0.943,15.175 0.943,15.201 C0.943,24.648 4.583,25.582 5.914,28.52 C7.287,31.551 7.049,34.783 6.833,36.254 C6.751,36.824 7.009,37.396 7.506,37.684 Z" id="Path" fill="#FADA8F"></path>
                    <path d="M13.648,39.425 C11.222,39.425 8.796,38.984 7.264,38.101 L7.264,38.101 C6.609,37.725 6.245,36.954 6.358,36.185 C6.585,34.627 6.775,31.587 5.475,28.721 C5.14,27.982 4.642,27.372 4.066,26.666 C2.46,24.703 0.461,22.256 0.461,15.202 C0.461,15.197 0.462,15.151 0.462,15.144 C0.52,3.325 12.373,2.986 13.724,2.986 C13.784,2.986 13.866,2.982 13.965,2.981 C14.134,2.976 14.351,2.971 14.6,2.971 C17.307,2.971 26.244,3.83 27.543,14.888 C27.55,14.955 27.728,16.223 30.646,20.777 C30.68,20.822 31.078,21.411 30.923,22.122 C30.82,22.593 30.509,22.983 29.997,23.279 C29.066,23.82 28.025,24.275 27.499,24.491 C27.592,25.489 27.808,28.274 27.506,29.86 C27.165,31.648 24.112,31.915 22.324,31.915 C22.036,31.915 21.859,31.906 21.859,31.906 C21.835,31.904 21.8,31.903 21.749,31.903 C21.479,31.903 21.098,31.965 21.098,32.105 L21.098,36.269 C21.098,37.014 20.711,37.706 20.089,38.073 C18.562,38.971 16.105,39.425 13.648,39.425 Z M7.746,37.266 C10.538,38.875 16.852,38.861 19.597,37.241 C19.927,37.046 20.133,36.672 20.133,36.266 L20.133,32.102 C20.133,31.538 20.558,30.936 21.748,30.936 C21.846,30.936 21.91,30.941 21.918,30.941 C21.92,30.943 22.068,30.948 22.323,30.948 C24.311,30.948 26.391,30.553 26.558,29.678 C26.896,27.901 26.508,24.266 26.504,24.229 C26.481,24.011 26.606,23.807 26.81,23.728 C26.825,23.721 28.298,23.149 29.514,22.443 C29.782,22.288 29.939,22.109 29.983,21.913 C30.047,21.618 29.85,21.316 29.849,21.312 C26.742,16.465 26.591,15.106 26.584,14.967 C25.379,4.731 17.106,3.934 14.6,3.934 C14.359,3.934 14.151,3.939 13.99,3.945 C13.88,3.947 13.79,3.95 13.725,3.95 C11.681,3.95 1.48,4.489 1.428,15.126 C1.428,15.133 1.427,15.177 1.4259996,15.182 C1.425,21.912 3.304,24.211 4.813,26.056 C5.407,26.781 5.967,27.466 6.355,28.321 C7.755,31.414 7.555,34.661 7.311,36.322 C7.255,36.706 7.43,37.084 7.746,37.266 L7.746,37.266 Z" id="Shape" fill="#255DA8"></path>
                    <path d="M20.968,16.166 C20.968,20.242 17.662,23.549 13.584,23.549 C9.507,23.549 6.202,20.242 6.202,16.166 C6.202,12.088 9.507,8.783 13.584,8.783 C17.662,8.783 20.968,12.088 20.968,16.166 Z" id="Path" fill="#F26A58"></path>
                    <path d="M17.645,16.166 C17.645,18.407 15.827,20.226 13.584,20.226 C11.342,20.226 9.524,18.407 9.524,16.166 C9.524,13.923 11.342,12.104 13.584,12.104 C15.827,12.104 17.645,13.923 17.645,16.166 Z" id="Path" fill="#A4C8E5"></path>
                    <path d="M16.065,0.622 L11.103,0.622 L11.103,5.54 C11.103,6.055 11.524,6.476 12.039,6.476 L15.131,6.476 C15.645,6.476 16.066,6.055 16.066,5.541 L16.066,0.622 L16.065,0.622 Z" id="Path" fill="#F26A58"></path>
                    <path d="M31.958,28.698 C31.045,28.698 30.257,29.214 29.845,29.963 C26.921,28.937 21.722,26.684 17.963,22.696 C20.064,21.282 21.45,18.883 21.45,16.167 C21.45,12.395 18.78,9.237 15.23,8.478 L15.23,6.694 C16.007,6.302 16.547,5.505 16.547,4.578 L16.547,0.625 C16.547,0.358 16.331,0.144 16.065,0.144 L11.103,0.144 C10.837,0.144 10.621,0.358 10.621,0.625 L10.621,4.578 C10.621,5.505 11.161,6.303 11.938,6.694 L11.938,8.478 C8.39,9.237 5.718,12.394 5.718,16.167 C5.718,20.505 9.246,24.033 13.583,24.033 C14.847,24.033 16.037,23.726 17.096,23.194 C21.037,27.495 26.502,29.846 29.558,30.898 C29.55,30.974 29.535,31.045 29.535,31.121 C29.535,32.458 30.621,33.545 31.957,33.545 C33.293,33.545 34.3800007,32.458 34.3800007,31.121 C34.381,29.785 33.293,28.698 31.958,28.698 Z M20.486,16.166 C20.486,18.6 19.217,20.737 17.309,21.967 C16.802,21.37 16.33,20.738 15.901,20.069 C17.231,19.273 18.128,17.826 18.128,16.167 C18.128,14.242 16.923,12.6 15.231,11.936 L15.231,9.472 C18.242,10.212 20.486,12.929 20.486,16.166 Z M11.585,4.577 L11.585,1.105 L15.583,1.105 L15.583,4.577 C15.583,5.359 14.947,5.992 14.167,5.992 L13.002,5.992 C12.221,5.992 11.585,5.358 11.585,4.577 Z M13.584,8.3 C13.354,8.3 13.128,8.316 12.903,8.335 L12.903,6.948 C12.936,6.95 12.968,6.959 13.002,6.959 L14.167,6.959 C14.201,6.959 14.233,6.95 14.266,6.948 L14.266,8.335 C14.041,8.316 13.815,8.3 13.584,8.3 Z M14.266,9.299 L14.266,11.679 C14.043,11.646 13.817,11.623 13.584,11.623 C13.352,11.623 13.126,11.646 12.903,11.679 L12.903,9.299 C13.128,9.276 13.354,9.264 13.584,9.264 C13.815,9.264 14.041,9.276 14.266,9.299 Z M13.584,12.587 C15.557,12.587 17.163,14.194 17.163,16.166 C17.163,18.138 15.557,19.743 13.584,19.743 C11.612,19.743 10.006,18.138 10.006,16.166 C10.006,14.194 11.612,12.587 13.584,12.587 Z M13.584,23.068 C9.78,23.068 6.683,19.972 6.683,16.166 C6.683,12.929 8.927,10.212 11.938,9.471 L11.938,11.935 C10.246,12.599 9.041,14.241 9.041,16.166 C9.041,18.672 11.079,20.708 13.583,20.708 C14.083,20.708 14.565,20.625 15.015,20.474 C15.451,21.168 15.927,21.823 16.438,22.441 C15.568,22.839 14.603,23.068 13.584,23.068 Z M31.958,32.579 C31.185,32.579 30.557,31.971 30.509,31.211 C31.269,31.448 31.752,31.567 31.845,31.588 C31.884,31.599 31.921,31.602 31.959,31.602 C32.177,31.602 32.374,31.453 32.427,31.233 C32.489,30.975 32.33,30.715 32.071,30.65 C32.048,30.646 31.565,30.525 30.776,30.274 C31.041,29.905 31.471,29.661 31.958,29.661 C32.762,29.661 33.416,30.316 33.416,31.119 C33.416,31.924 32.762,32.579 31.958,32.579 Z" id="Shape" fill="#255DA8"></path>
                </g>
            </g>
        </g>
    </g>
</svg>
